<svg height="464pt" viewBox="0 0 464 464" width="464pt" xmlns="http://www.w3.org/2000/svg"><path d="m0 336c0 17.671875 14.328125 32 32 32h400c17.671875 0 32-14.328125 32-32v-32h-464zm0 0" fill="#acabb1"/><path d="m464 80v224h-464v-224c0-17.671875 14.328125-32 32-32h400c17.671875 0 32 14.328125 32 32zm0 0" fill="#78b9eb"/><path d="m464 80v224h-402.960938c95.679688-30.800781 232.882813-100.558594 320.402344-256h50.558594c17.671875 0 32 14.328125 32 32zm0 0" fill="#5aaae7"/><path d="m168 208h-16c-17.671875 0-32 14.328125-32 32s14.328125 32 32 32h176v-64zm0 0" fill="#787680"/><path d="m328 208v16h-176c-14.589844-.011719-27.335938 9.867188-30.960938 24-.714843-2.605469-1.0625-5.296875-1.039062-8 0-17.671875 14.328125-32 32-32zm0 0" fill="#57565c"/><path d="m152 208h16v-208h-16c-17.671875 0-32 14.328125-32 32v208c0-17.671875 14.328125-32 32-32zm0 0" fill="#0b7"/><path d="m168 0h176v208h-176zm0 0" fill="#00ccb3"/><path d="m208 48h96v48h-96zm0 0" fill="#ffb655"/><path d="m280 432h-96l8-64h80zm0 0" fill="#898890"/><path d="m152 432v32h160v-32zm0 0" fill="#787680"/><path d="m344 73.761719v134.238281h-145.519531c56.375-35.382812 105.710937-80.898438 145.519531-134.238281zm0 0" fill="#00b39d"/><path d="m274 384h-84l2-16h80zm0 0" fill="#787680"/><path d="m152 232h176v16h-176zm0 0" fill="#3e3d42"/><path d="m160 0h16v208h-16zm0 0" fill="#00665a"/><path d="m416 344c-2.675781.027344-5.1875-1.300781-6.671875-3.527344-1.484375-2.226562-1.742187-5.050781-.6875-7.511718.40625-.96875.972656-1.863282 1.679687-2.640626.390626-.363281.820313-.6875 1.28125-.960937.40625-.316406.867188-.558594 1.359376-.71875.453124-.230469.9375-.394531 1.4375-.480469 1.558593-.332031 3.183593-.164062 4.640624.480469 2.011719.726563 3.59375 2.308594 4.320313 4.320313 1.054687 2.460937.796875 5.285156-.6875 7.511718-1.484375 2.226563-3.996094 3.554688-6.671875 3.527344zm0 0" fill="#787680"/></svg>